<svg width="14px" height="14px" viewBox="0 0 14 14" version="1.1" xmlns="http://www.w3.org/2000/svg" xmlns:xlink="http://www.w3.org/1999/xlink">
    <title>形状结合</title>
    <g id="WaPlus" stroke="none" stroke-width="1" fill="none" fill-rule="evenodd">
        <g id="切片" transform="translate(-261.000000, -236.000000)" fill="#2CAE67">
            <path d="M272.994141,236 C274.101946,236 275,236.89706 275,238.005859 L275,247.994141 C275,249.101946 274.10294,250 272.994141,250 L263.005859,250 C261.898054,250 261,249.10294 261,247.994141 L261,238.005859 C261,236.898054 261.89706,236 263.005859,236 L272.994141,236 Z M271.835648,240 L270.87366,240 C270.662391,240 270.465481,240.094347 270.342412,240.250963 L270.342412,240.250963 L267.118006,244.364494 L265.657588,242.500197 C265.534519,242.341694 265.335558,242.249233 265.12634,242.249233 L265.12634,242.249233 L264.164352,242.249233 C264.031027,242.249233 263.953083,242.388867 264.031027,242.488875 L264.031027,242.488875 L266.58881,245.749509 C266.849306,246.083497 267.388758,246.083497 267.649254,245.749509 L267.649254,245.749509 L271.968973,240.239641 C272.046917,240.139634 271.968973,240 271.835648,240 L271.835648,240 Z" id="形状结合"></path>
        </g>
    </g>
</svg>
