<svg
    width="12px"
    height="13px"
    viewBox="0 0 12 12"
    version="1.1"
    xmlns="http://www.w3.org/2000/svg"
    xmlns:xlink="http://www.w3.org/1999/xlink"
  >
    <title>形状结合</title>
    <g
      id="WaPlus"
      stroke="none"
      stroke-width="1"
      fill="none"
      fill-rule="evenodd"
    >
      <g
        id="切片"
        transform="translate(-437.000000, -288.000000)"
        fill="#9D9FA0"
      >
        <path
          d="M444.789714,288.000383 C445.137025,287.997325 445.431886,288.247932 445.475445,288.583216 L445.475445,288.583216 L445.614,289.666 L448.485732,289.666692 C448.76964,289.666692 449,289.890571 449,290.166536 C449,290.442863 448.76964,290.666757 448.485732,290.666757 L447.457,290.666 L447.457166,298.666633 C447.457166,299.020464 447.312493,299.359168 447.055359,299.60949 C446.795151,299.860685 446.447374,300.000762 446.08572,299.999997 L439.914295,299.999997 C439.550502,299.999997 439.201489,299.859389 438.944355,299.60949 C438.688502,299.362408 438.543662,299.022288 438.542834,298.666633 L438.542,290.666 L437.514283,290.666757 C437.230074,290.666757 437,290.442863 437,290.166536 C437,289.890571 437.230074,289.666692 437.514283,289.666692 L440.384,289.666 L440.52115,288.583216 C440.560027,288.281461 440.802765,288.048293 441.104366,288.006627 L441.20688,288 Z M439.57146,290.666757 L439.57146,298.666272 C439.57146,298.75473 439.607425,298.839421 439.671565,298.902159 C439.736022,298.964551 439.823064,298.999506 439.914295,298.999506 L446.08572,298.999506 C446.176589,298.999506 446.264038,298.964551 446.328134,298.902159 C446.392168,298.84037 446.428435,298.755257 446.4286,298.666272 L446.4286,290.666757 L439.57146,290.666757 Z M441.800024,292.666994 C442.083887,292.666994 442.314307,292.890888 442.314307,293.166853 L442.314307,297.166934 C442.314307,297.443322 442.083887,297.666854 441.800024,297.666854 C441.515754,297.666508 441.285741,297.442975 441.285741,297.166648 L441.285741,293.166853 C441.285741,292.890888 441.515754,292.666994 441.800024,292.666994 Z M444.200036,292.666994 C444.483899,292.666994 444.714319,292.890888 444.714319,293.166853 L444.714319,297.166934 C444.714319,297.443322 444.483899,297.666854 444.200036,297.666854 C443.915767,297.666508 443.685753,297.442975 443.685753,297.166648 L443.685753,293.166853 C443.685753,292.890888 443.915767,292.666994 444.200036,292.666994 Z M444.491433,289.000147 L441.508567,289.000147 L441.422881,289.666692 L444.577179,289.666692 L444.491433,289.000147 Z"
          id="形状结合"
        ></path>
      </g>
    </g>
  </svg>
