<svg
    width="12px"
    height="13px"
    viewBox="0 0 12 12"
    version="1.1"
    xmlns="http://www.w3.org/2000/svg"
    xmlns:xlink="http://www.w3.org/1999/xlink"
  >
    <title>Fill 1</title>
    <g
      id="WaPlus"
      stroke="none"
      stroke-width="1"
      fill="none"
      fill-rule="evenodd"
    >
      <g
        id="切片"
        transform="translate(-395.000000, -288.000000)"
        fill="#9D9FA0"
      >
        <path
          d="M406.399994,298.785017 C406.730977,298.785017 406.999996,299.057033 406.999996,299.393033 C407.001026,299.694717 406.77961,299.9511 406.480977,299.994 L406.399994,300 L395.600014,300 C395.266814,299.997783 394.998381,299.726167 395.000007,299.393033 C395.000007,299.085017 395.225998,298.830983 395.51903,298.791017 L395.600014,298.785017 L406.399994,298.785017 Z M402.586984,288.175067 L396.378012,294.383 C396.263812,294.497717 396.199746,294.653117 396.200012,294.815033 L396.200012,296.994983 C396.200012,297.330983 396.469029,297.602983 396.800011,297.602983 L398.994991,297.602983 C399.153007,297.602983 399.305024,297.540033 399.417007,297.427983 L405.619979,291.230017 C405.858062,290.990883 405.858062,290.604233 405.619979,290.365033 L403.429949,288.175067 C403.318366,288.06295 403.166666,288 403.008467,288 C402.850334,288 402.698634,288.06295 402.586984,288.175067 Z M403.008983,289.460017 L404.345964,290.797 L398.749025,296.387033 L397.399027,296.387033 L397.399027,295.069 L403.009967,289.460017 L403.008983,289.460017 Z"
          id="Fill-1"
        ></path>
      </g>
    </g>
  </svg>
