<svg data-v-789f3c9f="" xmlns="http://www.w3.org/2000/svg" xmlns:xlink="http://www.w3.org/1999/xlink" fill="none" version="1.1" width="18" height="19.1280517578125" viewBox="0 0 18 19.1280517578125" class="icon"><g data-v-789f3c9f=""><g data-v-789f3c9f=""><path data-v-789f3c9f="" d="M8.58037950881958,3.0234977780342103C8.49215950881958,2.53948777803421,8.22337950881958,2.0448177780342105,7.82328950881958,1.6290347780342103C7.33086950881958,1.11730377803421,6.71738950881958,0.8123977780342102,6.1839375088195805,0.8123977780342102C5.98902150881958,0.8123977780342102,5.71203450881958,0.8571741780342103,5.5109635088195805,1.0661307780342102C5.03085450881958,1.5650677780342102,5.27911640881958,2.66741777803421,6.05262550881958,3.47126777803421C6.54504950881958,3.98299777803421,7.15851950881958,4.2878977780342105,7.6919695088195805,4.2878977780342105C7.88688950881958,4.2878977780342105,8.16387950881958,4.243127778034211,8.36494950881958,4.03416777803421C8.58037950881958,3.8081477780342103,8.65834950881958,3.44993777803421,8.58037950881958,3.0234977780342103ZM11.95139950881958,3.47126777803421C12.351499508819579,3.0554877780342102,12.620269508819579,2.56080777803421,12.70849950881958,2.0767977780342104C12.786469508819579,1.6503567780342103,12.70849950881958,1.2921447780342101,12.49306950881958,1.0661307780342102C12.289939508819579,0.8550419780342102,12.015009508819581,0.8123977780342102,11.82008950881958,0.8123977780342102C11.284589508819579,0.8123977780342102,10.67110950881958,1.11730377803421,10.18074950881958,1.6290347780342103C9.407239508819579,2.43287777803421,9.158969508819581,3.5352277780342103,9.63907950881958,4.03416777803421C9.842209508819579,4.24525777803421,10.11713950881958,4.2878977780342105,10.31205950881958,4.2878977780342105C10.84550950881958,4.2878977780342105,11.458979508819581,3.98299777803421,11.95139950881958,3.47126777803421ZM8.12899950881958,5.10026777803421L9.870929508819579,5.10026777803421L9.870929508819579,18.31149777803421L8.12899950881958,18.31149777803421L8.12899950881958,5.10026777803421Z" fill="#FFAEBF" fill-opacity="1"></path></g><g data-v-789f3c9f=""><path data-v-789f3c9f="" d="M16.3791,4.28788L12.2489,4.28788C12.3372,4.21112,12.4213,4.13222,12.5034,4.04694C13.0142,3.51602,13.3589,2.86996,13.4759,2.22816C13.6031,1.52879,13.4492,0.912586,13.045,0.492541C12.7352,0.170577,12.3105,0,11.8181,0C11.0794,0,10.2608,0.394459,9.62476,1.05544C9.36829,1.32197,9.16106,1.60982,8.99897,1.90406C8.83688,1.60342,8.62761,1.31557,8.37729,1.05544C7.74125,0.394459,6.9226,0,6.18397,0C5.69155,0,5.26684,0.170577,4.95703,0.492541C4.15069,1.33263,4.38664,2.89341,5.49869,4.04694C5.58076,4.13222,5.66693,4.21325,5.75311,4.28787L1.62293,4.28787C0.728371,4.28787,0,5.04481,0,5.97445L0,6.41369C0,7.34333,0.728371,8.10027,1.62293,8.10027L1.86094,8.10027L1.86094,17.4415C1.86094,18.3711,2.58931,19.1281,3.48387,19.1281L14.5161,19.1281C15.4107,19.1281,16.1391,18.3711,16.1391,17.4415L16.1391,8.09813L16.3771,8.09813C17.2716,8.09813,18,7.3412,18,6.41156L18,5.97232C18.002,5.04481,17.2737,4.28788,16.3791,4.28788Z" fill="#E66978" fill-opacity="1"></path></g><g data-v-789f3c9f=""><path data-v-789f3c9f="" d="M10.17874870010376,1.6290347780342103C10.67116870010376,1.11730377803421,11.28463870010376,0.8123979407092102,11.81808870010376,0.8123979407092102C12.01300870010376,0.8123979407092102,12.289998700103759,0.8571742780342102,12.49106870010376,1.0661307780342102C12.70649870010376,1.2900127780342103,12.784468700103758,1.6503567780342103,12.70649870010376,2.0767977780342104C12.61827870010376,2.56080777803421,12.349498700103759,3.0554877780342102,11.94940870010376,3.47126777803421C11.45698870010376,3.98299777803421,10.84350870010376,4.2878977780342105,10.31005870010376,4.2878977780342105C10.11513870010376,4.2878977780342105,9.83814870010376,4.243127778034211,9.63707870010376,4.03416777803421C9.15696870010376,3.53309777803421,9.403178700103759,2.43287777803421,10.17874870010376,1.6290347780342103ZM6.05062470010376,3.47126777803421C5.27711490010376,2.66741777803421,5.02885370010376,1.5650677780342102,5.50896270010376,1.0661307780342102C5.71208570010376,0.8550419780342102,5.98702070010376,0.8123977780342102,6.18193670010376,0.8123977780342102C6.717438700103759,0.8123977780342102,7.33091870010376,1.11730377803421,7.82128870010376,1.6290347780342103C8.22137870010376,2.0448177780342105,8.490158700103759,2.53948777803421,8.578378700103759,3.0234977780342103C8.65634870010376,3.44993777803421,8.578378700103759,3.8081577780342104,8.36294870010376,4.03416777803421C8.15981870010376,4.24525777803421,7.88488870010376,4.2878977780342105,7.68996870010376,4.2878977780342105C7.15651870010376,4.2878977780342105,6.54304870010376,3.98299777803421,6.05062470010376,3.47126777803421Z" fill="#FFAEBF" fill-opacity="1"></path></g><g data-v-789f3c9f=""><path data-v-789f3c9f="" d="M7.3473182962417605,18.311394104003906L3.48386829624176,18.311394104003906C3.02017829624176,18.311394104003906,2.6447082962417605,17.919094104003907,2.6447082962417605,17.439394104003906L2.6447082962417605,8.098154104003907L7.3473182962417605,8.098154104003907L7.3473182962417605,18.311394104003906ZM7.3473182962417605,7.285774104003906L1.6229342962417603,7.285774104003906C1.1592382962417602,7.285774104003906,0.7837682962417603,6.893454104003906,0.7837682962417603,6.413704104003906L0.7837682962417603,5.974468104003906C0.7837682962417603,5.492588104003906,1.1612902962417602,5.102394104003906,1.6229342962417603,5.102394104003906L7.3473182962417605,5.102394104003906L7.3473182962417605,7.285774104003906Z" fill="#FFD976" fill-opacity="1"></path></g><g data-v-789f3c9f=""><path data-v-789f3c9f="" d="M8.12903118133545,5.100279331207275L9.870971181335449,5.100279331207275L9.870971181335449,18.311479331207273L8.12903180747945,18.311479331207273L8.12903118133545,5.100279331207275Z" fill="#FFAEBF" fill-opacity="1"></path></g><g data-v-789f3c9f=""><path data-v-789f3c9f="" d="M15.357293113098144,17.439379331207277C15.357293113098144,17.921279331207273,14.979773113098144,18.311479331207273,14.518123113098145,18.311479331207273L10.654684365388144,18.311479331207273L10.654684365388144,8.098169331207275L15.357293113098144,8.098169331207275L15.357293113098144,17.439379331207277ZM17.218233113098144,6.413719331207275C17.218233113098144,6.895599331207276,16.840703113098144,7.285799331207276,16.379063113098145,7.285799331207276L10.654683113098145,7.285799331207276L10.654683113098145,5.100279331207275L16.379063113098145,5.100279331207275C16.842763113098144,5.100279331207275,17.218233113098144,5.492606331207275,17.218233113098144,5.972353331207275L17.218233113098144,6.413719331207275Z" fill="#FFD976" fill-opacity="1"></path></g></g></svg>
