<?xml version="1.0" encoding="UTF-8"?>
<svg width="42px" height="35px" viewBox="0 0 42 35" version="1.1" xmlns="http://www.w3.org/2000/svg" xmlns:xlink="http://www.w3.org/1999/xlink">
    <title>Fill 1</title>
    <g id="WaPlus" stroke="none" stroke-width="1" fill="none" fill-rule="evenodd">
        <g id="切片" transform="translate(-253.000000, -441.000000)" fill="#DBE0E7">
            <path d="M287.876822,452.097561 L260.127347,452.097561 C259.471632,452.097561 258.866255,452.44913 258.541289,453.018655 L253,462.730124 L253,462.730124 L253,474.173913 C253,475.182433 253.817567,476 254.826087,476 L293.173913,476 C294.182433,476 295,475.182433 295,474.173913 L295,462.730124 L295,462.730124 L289.463173,453.019169 C289.138286,452.449354 288.532749,452.097561 287.876822,452.097561 Z M279.30472,463.017435 C279.30472,465.944069 276.932718,468.317073 274.002268,468.317073 C271.071991,468.317073 268.699816,465.944069 268.699816,463.017435 L255.625,463.017435 L259.940246,454.783318 C260.255496,454.181776 260.878536,453.804878 261.557679,453.804878 L286.442321,453.804878 C287.121464,453.804878 287.744504,454.181776 288.059754,454.783318 L292.375,463.017435 L292.375,463.017435 L279.30472,463.017435 Z M274,447.829268 C274.483249,447.829268 274.875,447.437517 274.875,446.954268 L274.875,441.875 C274.875,441.391751 274.483249,441 274,441 C273.516751,441 273.125,441.391751 273.125,441.875 L273.125,446.954268 C273.125,447.437517 273.516751,447.829268 274,447.829268 Z M261.541319,443.357391 C261.911948,442.995798 262.50333,442.995796 262.873961,443.357386 L266.333662,446.732695 C266.692687,447.082963 266.699787,447.65796 266.349519,448.016986 C266.344295,448.02234 266.339005,448.02763 266.333651,448.032853 C265.963004,448.394447 265.371607,448.394441 265.000968,448.032838 L261.541319,444.657538 C261.182293,444.307265 261.175197,443.732266 261.52547,443.37324 C261.530687,443.367892 261.535971,443.362608 261.541319,443.357391 Z M281.666357,446.732661 L285.12573,443.35752 C285.496415,442.995861 286.087901,442.995866 286.45858,443.357531 C286.817667,443.707885 286.824745,444.283001 286.474391,444.642087 C286.469176,444.647432 286.463895,444.652713 286.458549,444.657928 L282.999217,448.032816 C282.628546,448.394439 282.037114,448.394458 281.66642,448.03286 C281.307363,447.682613 281.30022,447.107609 281.650467,446.748552 C281.655698,446.74319 281.660995,446.737892 281.666357,446.732661 Z" id="Fill-1"></path>
        </g>
    </g>
</svg>