<svg xmlns="http://www.w3.org/2000/svg" xmlns:xlink="http://www.w3.org/1999/xlink" fill="none" version="1.1" width="79.84329986572266" height="60" viewBox="0 0 79.84329986572266 60"><g><path d="M39.9212,11.8439C45.6786,11.84,51.0958,14.5704,54.5173,19.2008L56.8285,19.8245C51.3507,10.7293,39.661,7.59479,30.3662,12.7295L32.6783,13.3479C34.9636,12.353,37.4297,11.841,39.9221,11.8439L39.9212,11.8439ZM51.8435,10.8175L53.1113,11.8439L53.4963,10.3034L54.9147,9.47388L53.4963,8.64526L53.1113,7.10475L51.8435,8.13205L50.1845,8.0091L50.8188,9.47299L50.1845,10.9369L51.8435,10.8175ZM29.8619,7.37204L28.5575,6.46591L28.2733,8.06968L26.9368,9.06403L28.3758,9.75365L28.8569,11.2755L30.0312,10.0985L31.6617,10.0441L30.9489,8.62477L31.4782,7.06911L29.8619,7.37204ZM42.0684,5.15705L41.1053,3.8963L40.3453,5.34148L38.7691,5.87607L39.9274,6.97021L39.9212,8.56596L41.3984,7.79526L42.9683,8.24075L42.7198,6.67262L43.6998,5.35128L42.0684,5.15705ZM59.7287,15.0702L58.3646,14.1177L58.1721,15.7028L56.882,16.641L58.3753,17.3769L58.9429,18.9059L60.0575,17.777L61.7005,17.7814L60.8986,16.3478L61.3441,14.8234L59.7287,15.0702ZM77.5066,26.9951L8.88007,8.60606C7.19426,8.15213,5.46003,9.15236,5.00873,10.8389L0.108303,29.138C-0.342793,30.8218,0.656419,32.5526,2.34023,33.004L70.9676,51.3948C72.6517,51.8453,74.3822,50.8459,74.8336,49.162L79.734,30.8638C80.1871,29.1806,79.1898,27.4489,77.5066,26.996L77.5066,26.9951ZM78.0118,31.2184L73.5114,47.9913C73.173,49.2542,71.8752,50.004,70.6121,49.6663L3.51277,31.6862C2.25034,31.3466,1.50101,30.0492,1.83771,28.786L6.33096,12.0096C6.6701,10.7469,7.96805,9.99765,9.23112,10.3355L76.3323,28.3156C77.5984,28.6522,78.35,29.9535,78.0091,31.2184L78.0118,31.2184ZM39.9212,1.58241C53.073,1.58241,64.1409,10.5172,67.3778,22.6462L69.1251,23.114C66.0155,9.86592,54.1217,0.0000146001,39.9212,0.0000146001C31.6503,-0.00815637,23.7452,3.4085,18.084,9.43824L19.8294,9.90245C25.1534,4.56707,32.3839,1.57293,39.9212,1.58241ZM47.1685,46.6557C39.4134,50.0231,30.3604,47.5957,25.3304,40.8001L23.0183,40.1809C28.4978,49.2769,40.1903,52.4097,49.4806,47.2722L47.1685,46.6557ZM30.2299,49.93L28.9727,48.9054L28.5878,50.4424L27.1801,51.2683L28.5878,52.0943L28.9727,53.6348L30.2299,52.6101L31.8765,52.7331L31.2465,51.2728L31.8791,49.8062L30.2299,49.93ZM39.9212,54.793L40.879,56.0502L41.6328,54.6059L43.1938,54.0651L42.0355,52.9737L42.0417,51.3815L40.5769,52.1522L39.0213,51.7067L39.269,53.2704L38.3014,54.5899L39.9212,54.793ZM19.9631,44.8728L21.2505,45.9108L21.5544,44.3489L22.8971,43.5042L21.4715,42.6676L21.0144,41.1075L19.8285,42.149L18.2051,42.0288L18.8939,43.5123L18.3468,44.9975L19.9631,44.8728ZM39.9212,58.4158C26.7693,58.4158,15.7059,49.481,12.4654,37.3511L10.7182,36.8824C13.8322,50.1341,25.726,60,39.9212,60C48.1942,60.0099,56.1019,56.5931,61.7646,50.5617L60.0192,50.0949C54.6942,55.4331,47.4612,58.4287,39.9212,58.4185L39.9212,58.4158ZM51.3312,52.6244L52.6266,53.5314L52.9064,51.9276L54.2286,50.9377L52.7986,50.2481L52.3175,48.7334L51.1592,49.9078L49.5403,49.9603L50.2531,51.3761L49.7309,52.9264L51.3312,52.6244Z" fill="#111827" fill-opacity="1" style="mix-blend-mode:passthrough"/></g></svg>