<svg xmlns="http://www.w3.org/2000/svg" xmlns:xlink="http://www.w3.org/1999/xlink" fill="none" version="1.1" width="113.57757568359375" height="111.1033935546875" viewBox="0 0 113.57757568359375 111.1033935546875">
  <g>
    <!-- 背景装饰 -->
    <g transform="matrix(0.9836446046829224,0.18024460971355438,-0.16728590428829193,0.985929548740387,0.2586027181314421,-2.849930869710988)">
      <path d="M58.50726240234375,1.41116C60.57426240234375,-0.470387,63.66666240234375,-0.470387,65.73366240234375,1.41116L75.28076240234375,10.1016C76.20206240234376,10.9399,77.36796240234375,11.4335,78.59186240234375,11.5036L91.34186240234375,12.2343C94.12446240234375,12.3938,96.34766240234374,14.6944,96.50696240234375,17.579L97.21426240234375,30.396C97.28616240234375,31.6951,97.78616240234375,32.9293,98.63056240234376,33.8919L107.00446240234375,43.4384C108.90456240234376,45.6044,108.90456240234376,48.9132,107.00446240234375,51.0792L98.63056240234376,60.6257C97.78616240234375,61.5883,97.28616240234375,62.8225,97.21426240234375,64.1216L96.50696240234375,76.9386C96.34766240234374,79.8232,94.12446240234375,82.1238,91.34186240234375,82.2833L78.59186240234375,83.0136C77.36786240234375,83.0838,76.20206240234376,83.5776,75.28076240234375,84.416L65.73366240234375,93.1064C63.66666240234375,94.988,60.57426240234375,94.988,58.50726240234375,93.1064L48.96016240234375,84.416C48.03886240234375,83.5776,46.872962402343745,83.0838,45.64896240234375,83.0136L32.89896240234375,82.2833C30.11646240234375,82.1238,27.893162402343748,79.8232,27.73386240234375,76.9386L27.02616240234375,64.1216C26.95456240234375,62.8225,26.45496240234375,61.5884,25.610702402343748,60.6257L17.23638240234375,51.0792C15.33648940234375,48.9131,15.33648940234375,45.6045,17.23638240234375,43.4384L25.61028240234375,33.8919C26.45466240234375,32.9292,26.95446240234375,31.6951,27.02616240234375,30.396L27.73386240234375,17.579C27.893162402343748,14.6944,30.11646240234375,12.3938,32.89896240234375,12.2343L45.64896240234375,11.504C46.872962402343745,11.4339,48.03886240234375,10.94,48.96016240234375,10.1016L58.50726240234375,1.41116Z" fill="#FFDE17" fill-opacity="0.4000000059604645" style="mix-blend-mode:passthrough"/>
    </g>
    
    <!-- 主要装饰 -->
    <g transform="matrix(0.9836446046829224,0.18024460971355438,-0.16728588938713074,0.985929548740387,0.570291870568326,-4.028833375889917)">
      <path d="M65.15743837890625,2.6250675390625C67.22423837890625,0.7442825390625001,70.31583837890625,0.7442825390625001,72.38253837890625,2.6250675390625L81.93513837890626,11.3176775390625C82.85633837890626,12.1558775390625,84.02213837890625,12.6495775390625,85.24593837890626,12.7196775390625L98.00223837890626,13.4499775390625C100.78493837890625,13.6092775390625,103.00843837890625,15.9098775390625,103.16773837890625,18.7946775390625L103.87503837890625,31.6112775390625C103.94683837890625,32.9105775390625,104.44703837890626,34.1448775390625,105.29173837890625,35.1075775390625L113.66733837890625,44.6535775390625C115.56793837890625,46.8196775390625,115.56793837890625,50.1291775390625,113.66733837890625,52.2952775390625L105.29173837890625,61.8412775390625C104.44703837890626,62.8039775390625,103.94683837890625,64.0382775390625,103.87503837890625,65.3376775390625L103.16773837890625,78.1541775390625C103.00823837890626,81.0388775390625,100.78483837890624,83.3394775390625,98.00223837890626,83.4989775390625L85.24593837890626,84.2291775390625C84.02213837890625,84.2992775390625,82.85633837890626,84.7929775390625,81.93513837890626,85.6312775390625L72.38253837890625,94.3237775390625C70.31583837890625,96.2045775390625,67.22423837890625,96.2045775390625,65.15743837890625,94.3237775390625L55.60483837890625,85.6312775390625C54.68373837890625,84.7929775390625,53.51793837890625,84.2992775390625,52.294138378906254,84.2291775390625L39.53823837890625,83.4988775390625C36.75543837890625,83.3398775390625,34.53163837890625,81.0391775390625,34.37233837890625,78.1541775390625L33.66453837890625,65.3376775390625C33.592938378906254,64.03837753906251,33.092938378906254,62.8040775390625,32.24828837890625,61.8412775390625L23.87228837890625,52.2952775390625C21.97168837890625,50.1291775390625,21.97168837890625,46.8196775390625,23.87228837890625,44.6535775390625L32.24828837890625,35.1075775390625C33.09303837890625,34.1448775390625,33.59323837890625,32.9105775390625,33.665038378906246,31.6111775390625L34.37273837890625,18.7946775390625C34.53203837890625,15.9101775390625,36.75503837890625,13.6096775390625,39.537438378906245,13.4499775390625L52.293738378906255,12.7196775390625C53.51753837890625,12.6495775390625,54.68323837890625,12.1558775390625,55.60443837890625,11.3176775390625L65.15703837890625,2.6250675390625L65.15743837890625,2.6250675390625Z" fill="#FFDE17" fill-opacity="1" style="mix-blend-mode:passthrough"/>
    </g>
    
    <!-- 60% 文字 -->
    <g>
      <!-- 数字 6 -->

<text x="52%" y="35%" font-size="18" font-weight="700" fill="#fe415b" font-family="system-ui, sans-serif" text-anchor="middle" dominant-baseline="middle">save</text>
    </g>
    <g>
      <!-- 数字 6 -->

<text x="52%" y="60%" font-size="30" font-weight="700" fill="#fe415b" font-family="system-ui, sans-serif" text-anchor="middle" dominant-baseline="middle">$96</text>
    </g>
    
  </g>
</svg>
