<svg xmlns="http://www.w3.org/2000/svg" xmlns:xlink="http://www.w3.org/1999/xlink" fill="none" version="1.1" width="20" height="20.13222885131836" viewBox="0 0 20 20.13222885131836"><defs><linearGradient x1="1" y1="0.021552452817559242" x2="0.006589587810910874" y2="1.0215307954066954" id="master_svg0_2_00467"><stop offset="0%" stop-color="#BC63FB" stop-opacity="1"></stop><stop offset="100%" stop-color="#2E83FB" stop-opacity="1"></stop></linearGradient></defs><g><path d="M19.9154,0.537146C19.8588,0.17384,19.8393,0.158214,19.4662,0.0898499C19.1205,0.0253923,18.7747,0,18.4271,0C18.0872,0,17.7473,0.0234391,17.4094,0.0585977C16.0519,0.199232,14.7276,0.501987,13.4424,0.964909C11.1668,1.78528,9.15886,3.00997,7.53375,4.82455C7.45952,4.90658,7.38335,4.93393,7.28764,4.93393C7.2642,4.93393,7.24076,4.93198,7.21537,4.93002C6.53173,4.8558,5.84613,4.73665,5.16054,4.73665L5.11366,4.73665C3.89092,4.74642,2.93773,5.307,2.27558,6.34418C1.91423,6.91063,1.55483,7.47902,1.19347,8.04742C0.857513,8.5748,0.51374,9.09437,0.187546,9.62761C-0.275376,10.3855,0.162153,11.2957,1.02354,11.3601C2.06072,11.4383,3.0979,11.5008,4.13508,11.5574C4.32259,11.5672,4.40268,11.618,4.42026,11.8172C4.48276,12.4774,4.65855,13.1064,5.01209,13.6748C5.70159,14.7803,6.70557,15.3878,7.9869,15.5577C8.46936,15.6222,8.45569,15.6261,8.49084,16.1241C8.55921,17.1203,8.63343,18.1184,8.72719,19.1126C8.78579,19.7338,9.26433,20.1322,9.79757,20.1322C10.0085,20.1322,10.2292,20.0697,10.4363,19.9349C11.5946,19.1771,12.7646,18.4309,13.8877,17.6223C14.9346,16.8683,15.3898,15.8058,15.255,14.5068C15.1983,13.9502,15.1515,13.3915,15.0948,12.8349C15.0772,12.663,15.1182,12.5321,15.253,12.409C16.8957,10.9031,18.0677,9.0807,18.8685,7.01219C19.5385,5.28161,19.9389,3.49633,19.9955,1.63878C19.9975,1.58604,19.9994,1.53331,19.9994,1.48252C20.0053,1.16414,19.9643,0.849666,19.9154,0.537146ZM13.7705,9.17641L13.749,9.17641C12.1962,9.16469,10.8035,7.77397,10.8367,6.23675C10.8758,4.41436,12.2489,3.24046,13.8486,3.24046L13.9033,3.24046C15.4659,3.26585,16.7805,4.63118,16.7609,6.21917C16.7395,7.86968,15.4151,9.17641,13.7705,9.17641ZM6.87159,17.5383C6.33054,18.0852,5.78363,18.6243,5.24453,19.1693C5.11561,19.3001,4.97693,19.3802,4.81677,19.3802C4.75426,19.3802,4.68785,19.3685,4.61753,19.3412C4.36166,19.2474,4.2386,19.0579,4.22688,18.7923C4.21907,18.6243,4.22298,18.4563,4.21907,18.2884C4.21321,18.0891,4.21126,18.0168,4.13313,18.0168C4.09015,18.0168,4.0257,18.0383,3.92608,18.0715C3.31862,18.2727,2.71311,18.4759,2.10564,18.677C2.01384,18.7083,1.92008,18.7298,1.83023,18.7298C1.74429,18.7298,1.65835,18.7103,1.5724,18.6634C1.31262,18.5169,1.21496,18.2571,1.31848,17.9387C1.51967,17.3156,1.73257,16.6945,1.93766,16.0714C2.02751,15.8019,2.02165,15.796,1.73062,15.7901C1.55483,15.7882,1.37903,15.7901,1.20324,15.7823C0.947362,15.7706,0.765709,15.6456,0.67,15.4034C0.578197,15.167,0.636794,14.962,0.808681,14.7881C1.37317,14.2217,1.93962,13.6552,2.50606,13.0907C2.60763,12.9892,2.72873,12.9267,2.8596,12.9267C2.87327,12.9267,2.88695,12.9267,2.89867,12.9286C3.20533,12.9325,3.37526,13.0692,3.4866,13.3818C3.91827,14.6123,4.70348,15.544,5.84223,16.1769C6.0942,16.3156,6.35789,16.4289,6.63134,16.5226C7.12552,16.6906,7.23685,17.1691,6.87159,17.5383Z" fill="url(#master_svg0_2_00467)" fill-opacity="1"></path></g></svg>
