<svg
    width="13px"
    height="13px"
    viewBox="0 0 13 13"
    version="1.1"
    xmlns="http://www.w3.org/2000/svg"
    xmlns:xlink="http://www.w3.org/1999/xlink"
  >
    <title>形状</title>
    <g
      id="WaPlus"
      stroke="none"
      stroke-width="1"
      fill="none"
      fill-rule="evenodd"
      fill-opacity="0.45"
    >
      <g
        id="切片"
        transform="translate(-230.000000, -288.000000)"
        fill="#000000"
      >
        <path
          d="M242.4625,299.601562 L238.404687,295.54375 C239.034375,294.729688 239.375,293.734375 239.375,292.6875 C239.375,291.434375 238.885938,290.259375 238.001563,289.373438 C237.117188,288.4875 235.939063,288 234.6875,288 C233.435937,288 232.257812,288.489062 231.373437,289.373438 C230.4875,290.257812 230,291.434375 230,292.6875 C230,293.939062 230.489062,295.117188 231.373437,296.001562 C232.257812,296.8875 233.434375,297.375 234.6875,297.375 C235.734375,297.375 236.728125,297.034375 237.542188,296.40625 L241.6,300.4625 C241.65,300.5125 241.73125,300.5125 241.78125,300.4625 L242.4625,299.782812 C242.5125,299.732813 242.5125,299.651563 242.4625,299.601562 Z M237.1625,295.1625 C236.5,295.823438 235.621875,296.1875 234.6875,296.1875 C233.753125,296.1875 232.875,295.823438 232.2125,295.1625 C231.551562,294.5 231.1875,293.621875 231.1875,292.6875 C231.1875,291.753125 231.551562,290.873438 232.2125,290.2125 C232.875,289.551562 233.753125,289.1875 234.6875,289.1875 C235.621875,289.1875 236.501563,289.55 237.1625,290.2125 C237.823438,290.875 238.1875,291.753125 238.1875,292.6875 C238.1875,293.621875 237.823438,294.501562 237.1625,295.1625 Z"
          id="形状"
        ></path>
      </g>
    </g>
  </svg>
